<svg xmlns="http://www.w3.org/2000/svg" aria-hidden="true" style="position:absolute;width:0;height:0;overflow:hidden">
  <defs>
    <symbol id="icon-arrow-left" viewBox="0 0 32 32">
      <path d="M28.693 5.149h-.083l-.274.001h-.197l-.534.001h-.558l-1.057.001-1.203.001-2.475.003v.063h-.188v.063h-.125v.063h-.094v.063l-.059.014c-.066.018-.066.018-.129.049v.063h-.062c-.063.094-.063.094-.063.188h-.062v.063h-.062l-.062.188h-.063c-.062.094-.062.094-.062.188h-.062v.063h-.062l-.063.188h-.062v.063h-.062V6.6h-.062v.063h-.063v.063h-.062v.125h-.062v.063h-.062c-.063.094-.063.094-.063.188h-.062v.063h-.062v.125h-.062v.063h-.063v.063h-.062v.125h-.062v.063h-.062l-.063.188h-.062v.063h-.062v.125h-.062v.063h-.063c-.062.094-.062.094-.062.187h-.062v.063h-.062l-.063.187h-.062v.063h-.062v.125h-.062v.062h-.063c-.062.094-.062.094-.062.188h-.062v.062h-.062l-.063.188h-.062c-.062.094-.062.094-.062.188h-.062v.062h-.063l-.062.188h-.062v.062h-.062v.125h-.063v.062h-.062v.062h-.062v.125h-.062v.062h-.063c-.062.094-.062.094-.062.188h-.062v.062h-.062v.125h-.063v.063h-.062v.062h-.062v.125h-.062v.063h-.063l-.062.187h-.062v.063h-.062v.125h-.063v.062h-.062c-.062.094-.062.094-.062.188h-.062v.062h-.063l-.062.188h-.062v.062h-.062v.125h-.063v.062h-.062c-.062.094-.062.094-.062.188h-.062v.062h-.063l-.062.188h-.062c-.062.094-.062.094-.062.188h-.063v.062h-.062l-.062.188h-.062v.062h-.063v.125h-.062v.063h-.062v.062h-.062v.125h-.063v.063h-.062c-.062.094-.062.094-.062.187h-.062v.063h-.063v.125h-.062v.062h-.062v.063h-.062v.125h-.063v.062h-.062l-.062.188h-.062v.062h-.063v.125h-.062v.062h-.062c-.062.094-.062.094-.062.188h-.063v.062h-.062l-.062.188h-.062v.062h-.063v.125h-.062v.062h-.062c-.062.094-.062.094-.062.188h-.063v.062h-.062v.125h-.062v.063h-.062c-.077.149-.072.288-.07.451l-.001.079c0 .148.014.268.071.407h.062v.063h.062v.125h.062v.062h.063l.014.059a.483.483 0 0 0 .049.129h.062v.062h.062v.125h.063v.062h.062l.062.188h.062v.062h.063l.014.059a.483.483 0 0 0 .049.129h.062v.062h.062v.125h.063v.062h.062l.062.188h.062v.062h.063v.125h.062v.063h.062v.062h.062v.125h.063v.063h.062l.014.059a.483.483 0 0 0 .049.129h.062v.063h.063v.125h.062v.062h.062v.063h.062v.125h.063v.062h.062l.062.188h.062v.062h.063l.014.059a.483.483 0 0 0 .049.129h.062l.062.188h.063v.062h.062l.014.059a.483.483 0 0 0 .049.129h.062v.062h.063v.125h.062v.062h.062l.062.188h.063v.062h.062l.014.059a.483.483 0 0 0 .049.129h.062v.062h.063v.125h.062v.063h.062l.062.187h.063v.063h.062v.125h.062v.062h.062v.063h.063v.125h.062v.062h.062l.014.059a.483.483 0 0 0 .049.129h.063v.062h.062v.125h.062v.062h.062v.062h.063v.125h.062v.062h.062l.062.188h.063v.062h.062l.014.059a.483.483 0 0 0 .049.129h.062l.063.188h.062v.062h.062l.014.059a.483.483 0 0 0 .049.129h.063v.062h.062v.125h.062v.063h.062l.063.187h.062v.063h.062l.014.059a.483.483 0 0 0 .049.129h.063v.063h.062v.125h.062v.062h.062l.063.188h.062v.062h.062v.125h.062v.062h.063v.062h.062v.125h.062v.062h.062l.014.059a.483.483 0 0 0 .049.129h.062v.062h.062v.125h.062v.062h.063v.062h.062v.125h.062v.062h.062l.063.188h.062v.062h.062l.014.059a.483.483 0 0 0 .049.129h.063l.062.187h.062v.063h.062l.014.059a.483.483 0 0 0 .049.129h.062v.063c.094.062.094.062.188.062v.062h.094v.062h.125v.063h.188v.062h6.875v-.062h.188v-.063h.125v-.062h.094v-.062h.094v-.062h.062v-.063h.063l.031-.125h.063c.119-.201.142-.347.133-.578l-.002-.087a7.36 7.36 0 0 0-.006-.21h-.062v-.125h-.062v-.125h-.063v-.062h-.062l-.062-.188h-.062v-.062h-.063l-.062-.188h-.062v-.062h-.062l-.063-.188h-.062v-.062h-.062l-.062-.188h-.063v-.062h-.062l-.062-.188h-.062v-.062h-.063l-.062-.188h-.062v-.062h-.062l-.063-.188h-.062v-.062h-.062l-.062-.188h-.063v-.062H28.3l-.062-.188h-.062v-.062h-.063l-.014-.059c-.018-.066-.018-.066-.049-.129h-.062v-.062h-.062l-.014-.059c-.018-.066-.018-.066-.049-.129h-.062v-.062h-.062l-.014-.059c-.018-.066-.018-.066-.049-.129h-.063v-.062h-.062l-.014-.059c-.018-.066-.018-.066-.049-.129h-.062v-.062h-.063l-.014-.059c-.018-.066-.018-.066-.049-.129h-.062v-.062h-.062l-.014-.059c-.018-.066-.018-.066-.049-.129h-.062v-.062h-.062l-.014-.059c-.018-.066-.018-.066-.049-.129h-.063v-.062h-.062a1.651 1.651 0 0 0-.014-.059c-.018-.066-.018-.066-.049-.129h-.062v-.062h-.063a1.651 1.651 0 0 0-.014-.059c-.018-.066-.018-.066-.049-.129h-.062v-.062h-.062l-.014-.059c-.018-.066-.018-.066-.049-.129h-.062v-.062h-.062l-.014-.059c-.018-.066-.018-.066-.049-.129h-.063v-.062h-.062a1.651 1.651 0 0 0-.014-.059c-.018-.066-.018-.066-.049-.129h-.062v-.062h-.063a1.651 1.651 0 0 0-.014-.059c-.018-.066-.018-.066-.049-.129h-.062v-.062h-.062v-.125h-.063v-.063h-.062v-.062h-.062l-.014-.059c-.018-.066-.018-.066-.049-.129h-.063v-.062h-.062a1.651 1.651 0 0 0-.014-.059c-.018-.066-.018-.066-.049-.129h-.062v-.062h-.063a1.651 1.651 0 0 0-.014-.059c-.018-.066-.018-.066-.049-.129h-.062v-.062h-.062v-.125h-.063v-.063h-.062v-.062h-.062v-.125h-.062v-.063h-.063v-.062h-.062v-.125h-.062v-.063h-.062v-.062h-.063v-.125h-.062v-.063h-.062v-.062h-.062v-.125h-.063v-.063h-.062v-.062h-.062v-.125h-.062v-.063h-.063v-.062h-.062v-.125h-.062v-.063h-.062v-.062h-.063v-.125h-.062v-.063h-.062v-.062h-.062v-.125h-.063v-.063h-.062l-.062-.187h-.062v-.063h-.063l-.062-.187h-.062l.062-.094v-.094h.062v-.062h.063v-.125h.062v-.062h.062v-.062h.062v-.125h.063v-.062h.062c.062-.094.062-.094.062-.188h.062v-.062h.063v-.125h.062v-.062h.062c.062-.094.062-.094.062-.188h.063v-.062h.062l.062-.188h.062v-.062h.063v-.125h.062v-.063h.062c.062-.094.062-.094.062-.187h.063v-.063h.062l.062-.187h.062v-.063h.063v-.125h.062v-.062h.062c.062-.094.062-.094.062-.188h.063v-.062h.062l.062-.188h.062v-.062h.063v-.125h.062v-.062h.062c.062-.094.062-.094.062-.188h.063v-.062h.062l.062-.188h.062v-.062h.063v-.125h.062v-.062h.062c.062-.094.062-.094.062-.188h.063v-.062h.062v-.125h.062v-.063h.062v-.062h.063v-.125h.062v-.063h.062l.062-.187h.063v-.063h.062v-.125h.062v-.062h.062c.063-.094.063-.094.063-.188h.062v-.062h.062l.062-.188h.063v-.062h.062v-.125h.062v-.062h.062c.063-.094.063-.094.063-.188h.062v-.062h.062l.062-.188h.063v-.062h.062V9.73h.062v-.062h.062c.063-.094.063-.094.063-.188h.062v-.062h.062l.062-.188h.063v-.062h.062v-.125h.062V8.98h.062c.063-.094.063-.094.063-.187h.062V8.73h.062l.062-.187h.063V8.48h.062v-.125h.062v-.062h.062c.063-.094.063-.094.063-.188h.062v-.062h.062v-.125h.062v-.063h.063c.062-.094.062-.094.062-.188h.062v-.063h.062l.063-.188h.062v-.063h.062v-.125h.062v-.063h.063c.062-.094.062-.094.062-.188h.062v-.063h.062l.063-.188h.062v-.125h.062c.066-.134.07-.254.066-.4l-.001-.066-.003-.159h-.062v-.188h-.062l-.014-.059c-.018-.066-.018-.066-.049-.129h-.063v-.063h-.062v-.063h-.062v-.063h-.094v-.063h-.094v-.063h-.125v-.063a1.124 1.124 0 0 0-.463-.07z"/>
      <path d="M16.594 5.156H9.938v.063H9.75v.063h-.125v.063l-.053.01a.753.753 0 0 0-.228.115v.063h-.062v.063h-.063v.125h-.062v.063h-.062l-.062.188H8.97v.063h-.062v.125h-.062v.063h-.062v.063h-.063v.125h-.062v.063h-.062c-.062.094-.062.094-.062.188h-.063v.063H8.41v.125h-.062v.063h-.062v.063h-.063v.125h-.062v.063h-.062c-.062.094-.062.094-.062.188h-.063v.063h-.063v.125h-.063v.063h-.063c-.063.094-.063.094-.063.188h-.063v.063h-.063l-.063.188H7.47v.062h-.063v.125h-.063v.063h-.063c-.063.094-.063.094-.063.187h-.063v.063h-.063l-.063.187h-.063v.063h-.063v.125H6.84v.062h-.063c-.063.094-.063.094-.063.188h-.063v.062h-.063l-.063.188h-.063v.062h-.063v.125h-.063v.062h-.063c-.063.094-.063.094-.063.188h-.063v.062h-.063l-.063.188h-.063c-.063.094-.063.094-.063.188h-.063v.062h-.063l-.063.188h-.063v.062H5.58v.125h-.063v.063h-.063v.062h-.063v.125h-.063v.063h-.063c-.063.094-.063.094-.063.187h-.063v.063h-.063v.125h-.063v.062H4.95v.063h-.063v.125h-.063v.062h-.063c-.063.094-.063.094-.063.188h-.063v.062h-.063v.125h-.063v.062h-.063c-.063.094-.063.094-.063.188H4.32v.062h-.063l-.063.188h-.063v.062h-.063v.125h-.063v.062h-.063c-.063.094-.063.094-.063.188h-.063v.062h-.063l-.063.188h-.063v.062h-.063v.125h-.063v.063h-.063c-.063.094-.063.094-.063.187h-.063v.063h-.063l-.063.187h-.063v.063H3.06v.125h-.063v.062h-.063c-.063.094-.063.094-.063.188h-.063v.062h-.063l-.063.188h-.063c-.063.094-.063.094-.063.188h-.063v.062H2.43l-.063.188h-.063v.062h-.063v.125h-.063v.062h-.063v.062h-.063v.125h-.063v.125h-.063v.688h.063v.125h.063v.125h.063v.062h.063v.062h.063v.125h.063v.062h.063l.063.188h.063v.062h.063l.014.059a.483.483 0 0 0 .049.129h.063l.063.188h.063v.062h.063l.014.059a.483.483 0 0 0 .049.129h.063v.062h.063v.125h.063v.063h.063l.063.187h.063v.063h.063l.014.059a.483.483 0 0 0 .049.129h.063v.063h.063v.125h.063v.062h.063l.063.188h.063v.062h.063l.014.059a.483.483 0 0 0 .049.129h.063v.062h.063v.125h.063v.062h.063l.063.188h.063v.062h.063l.014.059a.483.483 0 0 0 .049.129h.063v.062h.063v.125h.063v.062h.063l.014.059a.483.483 0 0 0 .049.129h.063v.062h.063v.125h.063v.063h.063v.062h.063v.125h.063v.063h.063l.014.059a.483.483 0 0 0 .049.129h.063v.063h.063v.125h.063v.062h.063v.063h.063v.125h.063v.062h.063l.063.188h.063v.062h.063l.014.059a.483.483 0 0 0 .049.129h.063l.063.188h.063v.062h.063l.014.059a.483.483 0 0 0 .049.129h.063v.062h.063v.125h.063v.062h.063l.063.188h.063v.062h.063l.014.059a.483.483 0 0 0 .049.129h.063v.062h.063v.125h.063v.063h.063l.063.187h.063v.063h.063l.014.059a.483.483 0 0 0 .049.129h.063v.063h.063v.125h.063v.062h.063l.063.188h.063v.062h.063l.014.059a.483.483 0 0 0 .049.129h.063v.062h.063v.125h.063v.062h.063l.014.059a.483.483 0 0 0 .049.129h.062v.062h.062v.125h.063v.062h.062v.062h.062v.125h.062v.062h.063l.014.059a.483.483 0 0 0 .049.129h.062v.062h.062v.125h.063v.063h.062v.062h.062v.125h.062v.063h.063l.014.059a.483.483 0 0 0 .049.129h.062v.063h.062v.125h.063v.062h.062v.063c.165.125.165.125.281.125v.062h.125v.063h.188v.062h6.875v-.062h.188v-.063h.125v-.062h.094v-.062l.059-.023c.077-.046.096-.082.129-.164h.062v-.062h.063a.388.388 0 0 0 .062-.25h.062v-.625h-.062v-.125h-.062l-.014-.059c-.018-.066-.018-.066-.049-.129h-.062v-.062h-.062l-.014-.059c-.018-.066-.018-.066-.049-.129h-.063v-.062h-.062l-.014-.059c-.018-.066-.018-.066-.049-.129h-.062v-.062h-.063l-.014-.059c-.018-.066-.018-.066-.049-.129h-.062v-.062h-.062l-.014-.059c-.018-.066-.018-.066-.049-.129h-.062v-.062h-.062l-.014-.059c-.018-.066-.018-.066-.049-.129h-.063v-.062h-.062l-.014-.059c-.018-.066-.018-.066-.049-.129h-.062v-.062h-.063l-.014-.059c-.018-.066-.018-.066-.049-.129h-.062v-.062h-.062l-.014-.059c-.018-.066-.018-.066-.049-.129h-.062v-.062h-.062v-.125h-.062v-.062h-.063v-.062h-.062l-.014-.059c-.018-.066-.018-.066-.049-.129h-.062v-.062h-.063l-.014-.059c-.018-.066-.018-.066-.049-.129h-.062v-.062h-.062l-.014-.059c-.018-.066-.018-.066-.049-.129h-.062v-.062H15.1v-.125h-.062v-.062h-.063v-.062h-.062v-.125h-.062v-.062h-.062v-.062h-.063v-.125h-.062v-.062h-.062v-.062h-.062v-.125h-.063v-.062h-.062v-.062h-.062v-.125h-.062v-.062h-.063v-.062h-.062v-.125h-.062v-.062h-.062v-.062h-.063v-.125h-.062v-.062h-.062v-.062h-.062v-.125h-.063v-.062h-.062v-.062h-.062v-.125h-.062v-.062h-.063v-.062h-.062v-.125h-.062v-.062h-.062l-.063-.188h-.062v-.062h-.062l-.062-.188h-.063v-.062h-.062l-.062-.188h-.062v-.062h-.063l-.062-.188h-.062v-.062h-.062l-.063-.188h-.062v-.062h-.062l-.062-.188h-.063v-.062h-.062l-.062-.188h-.062v-.062h-.063l-.062-.188h-.062v-.062h-.062l-.063-.188h-.062v-.062h-.062l-.062-.188h-.063v-.062h-.062l-.062-.188h-.062v-.062h-.063a1.651 1.651 0 0 0-.014-.059c-.018-.066-.018-.066-.049-.129h-.062v-.062h-.062l-.014-.059c-.018-.066-.018-.066-.049-.129h-.062v-.062h-.062l-.014-.059c-.018-.066-.018-.066-.049-.129h-.063v-.062h-.062l-.014-.055-.049-.195h.062v-.062h.062c.063-.094.063-.094.063-.188h.062v-.062h.062l.062-.188h.063v-.062h.062v-.125h.062v-.062h.062c.063-.094.063-.094.063-.188h.062v-.062h.062l.062-.188h.063v-.062h.062v-.125h.062v-.063h.062c.063-.094.063-.094.063-.187h.062v-.063h.062v-.125h.062v-.062h.063v-.063h.062v-.125h.062v-.062h.062c.063-.094.063-.094.063-.188h.062v-.062h.062v-.125h.062v-.062h.063v-.062h.062v-.125h.062v-.062h.062l.063-.188h.062v-.062h.062v-.125h.062v-.062h.063c.062-.094.062-.094.062-.188h.062v-.062h.062l.063-.188h.062v-.062h.062v-.125h.062v-.063h.063c.062-.094.062-.094.062-.187h.062v-.063h.062l.063-.187h.062v-.063h.062v-.125h.062v-.062h.063c.062-.094.062-.094.062-.188h.062v-.062h.062l.063-.188h.062v-.062h.062v-.125h.062v-.062h.063c.062-.094.062-.094.062-.188h.062v-.062h.062l.063-.188h.062v-.062h.062v-.125h.062v-.062h.063c.062-.094.062-.094.062-.188h.062v-.062h.062l.063-.188h.062v-.062h.062v-.125h.062v-.063h.063c.062-.094.062-.094.062-.187h.062v-.063h.062l.063-.187h.062v-.063h.062v-.125h.062v-.062h.063c.062-.094.062-.094.062-.188h.062v-.062h.062v-.125h.063V8.12h.062v-.062h.062v-.125h.062V7.87h.063c.062-.094.062-.094.062-.188h.062v-.063h.062v-.125h.063v-.063h.062c.062-.094.062-.094.062-.188h.062V7.18h.063l.062-.188h.062v-.063h.062v-.125h.063v-.063h.062v-.125h.062v-.188h.062c.012-.396.012-.396-.062-.563h-.062V5.74h-.062v-.125h-.063v-.063h-.062v-.063h-.062v-.063h-.094v-.063h-.094V5.3h-.125v-.063h-.188v-.063z"/>
    </symbol>
    <symbol id="icon-arrow-right" viewBox="0 0 32 32">
      <path d="M3.307 5.149h.083l.274.001h.197l.534.001h.558l1.057.001 1.203.001 2.475.003v.063h.188v.063h.125v.063h.094v.063l.059.014a.483.483 0 0 1 .129.049v.063h.062c.063.094.063.094.063.188h.062v.063h.062l.062.188h.063c.062.094.062.094.062.188h.062v.063h.062l.063.188h.062v.063h.062V6.6h.062v.063h.063v.063h.062v.125h.062v.063h.062c.063.094.063.094.063.188h.062v.063h.062v.125h.062v.063h.063v.063h.062v.125h.062v.063h.062l.063.188h.062v.063h.062v.125h.062v.063h.063c.062.094.062.094.062.187h.062v.063h.062l.063.187h.062v.063h.062v.125h.062v.062h.063c.062.094.062.094.062.188h.062v.062h.062l.063.188h.062c.062.094.062.094.062.188h.062v.062h.063l.062.188h.062v.062h.062v.125h.063v.062h.062v.062h.062v.125h.062v.062h.063c.062.094.062.094.062.188h.062v.062h.062v.125h.063v.063h.062v.062h.062v.125h.062v.063h.063l.062.187h.062v.063h.062v.125h.063v.062h.062c.062.094.062.094.062.188h.062v.062h.063l.062.188h.062v.062h.062v.125h.063v.062h.062c.062.094.062.094.062.188h.062v.062h.063l.062.188h.062c.062.094.062.094.062.188h.063v.062h.062l.062.188h.062v.062h.063v.125h.062v.063h.062v.062h.062v.125h.063v.063h.062c.062.094.062.094.062.187h.062v.063h.063v.125h.062v.062h.062v.063h.062v.125h.063v.062h.062l.062.188h.062v.062h.063v.125h.062v.062h.062c.062.094.062.094.062.188h.063v.062h.062l.062.188h.062v.062h.063v.125h.062v.062h.062c.062.094.062.094.062.188h.063v.062h.062v.125h.062v.063h.062c.077.149.072.288.07.451l.001.079a.997.997 0 0 1-.071.407h-.062v.063h-.062v.125h-.062v.062h-.063a1.651 1.651 0 0 1-.014.059c-.018.066-.018.066-.049.129h-.062v.062h-.062v.125h-.063v.062h-.062l-.062.188h-.062v.062h-.063a1.651 1.651 0 0 1-.014.059c-.018.066-.018.066-.049.129h-.062v.062h-.062v.125h-.063v.062h-.062l-.062.188h-.062v.062h-.063v.125h-.062v.063h-.062v.062h-.062v.125h-.063v.063h-.062a1.651 1.651 0 0 1-.014.059c-.018.066-.018.066-.049.129h-.062v.063h-.063v.125h-.062v.062h-.062v.063h-.062v.125h-.063v.062h-.062l-.062.188h-.062v.062h-.063a1.651 1.651 0 0 1-.014.059c-.018.066-.018.066-.049.129h-.062l-.062.188h-.063v.062h-.062a1.651 1.651 0 0 1-.014.059c-.018.066-.018.066-.049.129h-.062v.062h-.063v.125h-.062v.062h-.062l-.062.188h-.063v.062h-.062a1.651 1.651 0 0 1-.014.059c-.018.066-.018.066-.049.129h-.062v.062h-.063v.125h-.062v.063h-.062l-.062.187h-.063v.063h-.062v.125h-.062v.062h-.062v.063h-.063v.125h-.062v.062h-.062a1.651 1.651 0 0 1-.014.059c-.018.066-.018.066-.049.129h-.063v.062h-.062v.125h-.062v.062h-.062v.062h-.063v.125h-.062v.062h-.062l-.062.188h-.063v.062h-.062a1.651 1.651 0 0 1-.014.059c-.018.066-.018.066-.049.129h-.062l-.063.188h-.062v.062h-.062a1.651 1.651 0 0 1-.014.059c-.018.066-.018.066-.049.129h-.063v.062h-.062v.125h-.062v.063h-.062l-.063.187h-.062v.063h-.062a1.651 1.651 0 0 1-.014.059c-.018.066-.018.066-.049.129h-.063v.063h-.062v.125h-.062v.062h-.062l-.063.188h-.062v.062h-.062v.125h-.062v.062h-.063v.062h-.062v.125h-.062v.062h-.062l-.014.059c-.018.066-.018.066-.049.129h-.062v.062h-.062v.125h-.062v.062h-.063v.062h-.062v.125h-.062v.062h-.062l-.063.188h-.062v.062h-.062a1.651 1.651 0 0 1-.014.059c-.018.066-.018.066-.049.129h-.063l-.062.187h-.062v.063h-.062l-.014.059c-.018.066-.018.066-.049.129h-.062v.063c-.094.062-.094.062-.188.062v.062H9.99v.062h-.125v.063h-.188v.062H2.802v-.062h-.188v-.063h-.125v-.062h-.094v-.062h-.094v-.062h-.063v-.063h-.063l-.031-.125h-.063c-.119-.201-.142-.347-.133-.578l.002-.087.006-.21h.063v-.125h.063v-.125h.063v-.062h.063l.063-.188h.063v-.062h.063l.063-.188h.063v-.062h.063l.063-.188h.063v-.062h.063l.063-.188h.063v-.062h.063l.063-.188h.063v-.062h.063l.063-.188h.063v-.062h.063l.063-.188h.063v-.062h.063l.063-.188h.063v-.062h.063l.063-.188h.063v-.062h.063l.014-.059c.018-.066.018-.066.049-.129h.063v-.062h.063l.014-.059c.018-.066.018-.066.049-.129h.063v-.062h.063l.014-.059c.018-.066.018-.066.049-.129h.063v-.062h.063l.014-.059c.018-.066.018-.066.049-.129h.063v-.062h.063l.014-.059c.018-.066.018-.066.049-.129h.063v-.062h.063l.014-.059c.018-.066.018-.066.049-.129h.063v-.062h.063l.014-.059c.018-.066.018-.066.049-.129h.063v-.062h.063l.014-.059c.018-.066.018-.066.049-.129h.063v-.062h.063l.014-.059c.018-.066.018-.066.049-.129h.063v-.062h.063l.014-.059c.018-.066.018-.066.049-.129h.063v-.062h.063l.014-.059c.018-.066.018-.066.049-.129h.063v-.062h.063l.014-.059c.018-.066.018-.066.049-.129h.063v-.062h.063l.014-.059c.018-.066.018-.066.049-.129h.063v-.062h.063v-.125h.063v-.063h.063v-.062h.063l.014-.059c.018-.066.018-.066.049-.129h.063v-.062h.063l.014-.059c.018-.066.018-.066.049-.129h.063v-.062h.063l.014-.059c.018-.066.018-.066.049-.129h.063v-.062h.063v-.125h.063v-.063h.063v-.062h.063v-.125h.063v-.063h.063v-.062H7.5v-.125h.063v-.063h.063v-.062h.063v-.125h.063v-.063h.063v-.062h.063v-.125h.063v-.063h.063v-.062h.062v-.125h.062v-.063h.063v-.062h.062v-.125h.062v-.063h.062v-.062h.063v-.125h.062v-.063h.062v-.062h.062v-.125h.063v-.063h.062l.062-.187h.062v-.063h.063L9 16.039h.062L9 15.945v-.094h-.062v-.062h-.063v-.125h-.062v-.062h-.062v-.062h-.062v-.125h-.063v-.062h-.062c-.062-.094-.062-.094-.062-.188H8.44v-.062h-.063v-.125h-.062v-.062h-.062c-.062-.094-.062-.094-.062-.188h-.063v-.062h-.062l-.062-.188h-.063v-.062h-.063v-.125h-.063v-.063h-.063c-.063-.094-.063-.094-.063-.187h-.063v-.063h-.063l-.063-.187h-.063v-.063h-.063v-.125h-.063v-.062h-.063c-.063-.094-.063-.094-.063-.188h-.063v-.062h-.063l-.063-.188h-.063v-.062H6.87v-.125h-.063v-.062h-.063c-.063-.094-.063-.094-.063-.188h-.063v-.062h-.063l-.063-.188h-.063v-.062h-.063v-.125h-.063v-.062H6.24c-.063-.094-.063-.094-.063-.188h-.063v-.062h-.063v-.125h-.063v-.063h-.063v-.062h-.063v-.125h-.063v-.063h-.063l-.063-.187H5.61v-.063h-.063v-.125h-.063v-.062h-.063c-.063-.094-.063-.094-.063-.188h-.063v-.062h-.063l-.063-.188h-.063v-.062h-.063v-.125H4.98v-.062h-.063c-.063-.094-.063-.094-.063-.188h-.063v-.062h-.063l-.063-.188h-.063v-.062h-.063V9.73h-.063v-.062h-.063c-.063-.094-.063-.094-.063-.188h-.063v-.062h-.063l-.063-.188h-.063v-.062h-.063v-.125h-.063V8.98h-.063c-.063-.094-.063-.094-.063-.187h-.063V8.73H3.72l-.063-.187h-.063V8.48h-.063v-.125h-.063v-.062h-.063c-.063-.094-.063-.094-.063-.188h-.063v-.062h-.063v-.125h-.063v-.063H3.09c-.063-.094-.063-.094-.063-.188h-.063v-.063h-.063l-.063-.188h-.063v-.063h-.063v-.125h-.063v-.063h-.063c-.063-.094-.063-.094-.063-.188H2.46v-.063h-.063l-.063-.188h-.063v-.125h-.063c-.066-.134-.07-.254-.066-.4l.001-.066.003-.159h.063v-.188h.063l.014-.059c.018-.066.018-.066.049-.129h.063v-.063h.063v-.063h.063v-.063h.094v-.063h.094v-.063h.125v-.063c.159-.064.294-.071.463-.07z"/>
      <path d="M15.406 5.156h6.656v.063h.188v.063h.125v.063l.053.01a.753.753 0 0 1 .228.115v.063h.062v.063h.063v.125h.062v.063h.062l.062.188h.063v.063h.062v.125h.062v.063h.062v.063h.063v.125h.062v.063h.062c.062.094.062.094.062.188h.063v.063h.062v.125h.062v.063h.062v.063h.063v.125h.062v.063h.062c.062.094.062.094.062.188h.063v.063h.062v.125h.062v.063h.062c.063.094.063.094.063.188h.062v.063h.062l.062.188h.063v.062h.062v.125h.062v.063h.062c.063.094.063.094.063.187h.062v.063h.062l.062.187h.063v.063h.062v.125h.062v.062h.062c.063.094.063.094.063.188h.062v.062h.062l.062.188h.063v.062h.062v.125h.062v.062h.062c.063.094.063.094.063.188h.062v.062h.062l.062.188h.063c.062.094.062.094.062.188h.062v.062h.062l.063.188h.062v.062h.062v.125h.062v.063h.063v.062h.062v.125h.062v.063h.062c.063.094.063.094.063.187h.062v.063h.062v.125h.062v.062h.063v.063h.062v.125h.062v.062h.062c.063.094.063.094.063.188h.062v.062h.062v.125h.062v.062h.063c.062.094.062.094.062.188h.062v.062h.062l.063.188h.062v.062h.062v.125h.062v.062h.063c.062.094.062.094.062.188h.062v.062h.062l.063.188h.062v.062h.062v.125h.062v.063h.063c.062.094.062.094.062.187h.062v.063h.062l.063.187h.062v.063h.062v.125h.062v.062h.063c.062.094.062.094.062.188h.062v.062h.062l.063.188h.062c.062.094.062.094.062.188h.062v.062h.063l.062.188h.062v.062h.062v.125h.063v.062h.062v.062h.062v.125h.062v.125h.063v.688h-.063v.125h-.062v.125h-.062v.062h-.062v.062h-.063v.125h-.062v.062h-.062l-.062.188h-.063v.062h-.062a1.651 1.651 0 0 1-.014.059c-.018.066-.018.066-.049.129h-.062l-.063.188h-.062v.062h-.062l-.014.059c-.018.066-.018.066-.049.129h-.063v.062h-.062v.125h-.062v.063h-.062l-.063.187h-.062v.063h-.062l-.014.059c-.018.066-.018.066-.049.129h-.063v.063h-.062v.125h-.062v.062h-.062l-.063.188h-.062v.062h-.062l-.014.059c-.018.066-.018.066-.049.129h-.063v.062h-.062v.125h-.062v.062h-.062l-.063.188h-.062v.062h-.062l-.014.059c-.018.066-.018.066-.049.129h-.063v.062h-.062v.125h-.062v.062h-.062l-.014.059c-.018.066-.018.066-.049.129h-.062v.062h-.062v.125h-.062v.063h-.063v.062h-.062v.125h-.062v.063h-.062l-.014.059c-.018.066-.018.066-.049.129h-.062v.063h-.062v.125h-.062v.062h-.063v.063h-.062v.125h-.062v.062h-.062l-.063.188h-.062v.062h-.062l-.014.059c-.018.066-.018.066-.049.129h-.063l-.062.188h-.062v.062h-.062l-.014.059c-.018.066-.018.066-.049.129h-.062v.062h-.062v.125h-.062v.062h-.063l-.062.188h-.062v.062h-.062l-.014.059c-.018.066-.018.066-.049.129h-.062v.062h-.062v.125h-.062v.063h-.063l-.062.187h-.062v.063h-.062l-.014.059c-.018.066-.018.066-.049.129h-.062v.063h-.062v.125h-.062v.062h-.063l-.062.188h-.062v.062h-.062l-.014.059c-.018.066-.018.066-.049.129h-.062v.062h-.062v.125h-.062v.062h-.063a1.651 1.651 0 0 1-.014.059c-.018.066-.018.066-.049.129h-.062v.062h-.062v.125h-.063v.062h-.062v.062h-.062v.125h-.062v.062h-.063a1.651 1.651 0 0 1-.014.059c-.018.066-.018.066-.049.129h-.062v.062h-.062v.125h-.063v.063h-.062v.062h-.062v.125h-.062v.063h-.063a1.651 1.651 0 0 1-.014.059c-.018.066-.018.066-.049.129h-.062v.063h-.062v.125h-.063v.062h-.062v.063c-.165.125-.165.125-.281.125v.062h-.125v.063h-.188v.062h-6.875v-.062h-.188v-.063h-.125v-.062h-.094v-.062l-.059-.023c-.077-.046-.096-.082-.129-.164h-.062v-.062h-.063a.388.388 0 0 1-.062-.25h-.062v-.625h.062v-.125h.062l.014-.059c.018-.066.018-.066.049-.129h.062v-.062h.062l.014-.059c.018-.066.018-.066.049-.129h.063v-.062h.062l.014-.059c.018-.066.018-.066.049-.129h.062v-.062h.063l.014-.059c.018-.066.018-.066.049-.129h.062v-.062h.062l.014-.059c.018-.066.018-.066.049-.129h.062v-.062h.062l.014-.059c.018-.066.018-.066.049-.129h.063v-.062h.062l.014-.059c.018-.066.018-.066.049-.129h.062v-.062h.063l.014-.059c.018-.066.018-.066.049-.129h.062v-.062h.062l.014-.059c.018-.066.018-.066.049-.129h.062v-.062h.062v-.125h.062v-.062h.063v-.062h.062l.014-.059c.018-.066.018-.066.049-.129h.062v-.062h.063l.014-.059c.018-.066.018-.066.049-.129h.062v-.062h.062l.014-.059c.018-.066.018-.066.049-.129h.062v-.062h.062v-.125h.062v-.062h.063v-.062h.062v-.125h.062v-.062h.062v-.062h.063v-.125h.062v-.062h.062v-.062h.062v-.125h.063v-.062h.062v-.062h.062v-.125h.062v-.062h.063v-.062h.062v-.125h.062v-.062h.062v-.062h.063v-.125h.062v-.062h.062v-.062h.062v-.125h.063v-.062h.062v-.062h.062v-.125h.062v-.062h.063v-.062h.062v-.125h.062v-.062h.062l.063-.188h.062v-.062h.062l.062-.188h.063v-.062h.062l.062-.188h.062v-.062h.063l.062-.188h.062v-.062h.062l.063-.188h.062v-.062h.062l.062-.188h.063v-.062h.062l.062-.188h.062v-.062h.063l.062-.188h.062v-.062h.062l.063-.188h.062v-.062h.062l.062-.188h.063v-.062h.062l.062-.188h.062v-.062h.063l.014-.059c.018-.066.018-.066.049-.129h.062v-.062h.062l.014-.059c.018-.066.018-.066.049-.129h.062v-.062h.062l.014-.059c.018-.066.018-.066.049-.129h.063v-.062h.062l.014-.055.049-.195h-.062v-.062h-.062c-.063-.094-.063-.094-.063-.188h-.062v-.062h-.062l-.062-.188h-.063v-.062h-.062v-.125h-.062v-.062h-.062c-.063-.094-.063-.094-.063-.188h-.062v-.062h-.062l-.062-.188h-.063v-.062h-.062v-.125h-.062v-.063h-.062c-.063-.094-.063-.094-.063-.187h-.062v-.063h-.062v-.125h-.062v-.062h-.063v-.063h-.062v-.125h-.062v-.062h-.062c-.063-.094-.063-.094-.063-.188h-.062v-.062h-.062v-.125h-.062v-.062h-.063v-.062h-.062v-.125h-.062v-.062h-.062l-.063-.188h-.062v-.062h-.062v-.125h-.062v-.062h-.063c-.062-.094-.062-.094-.062-.188h-.062v-.062h-.062l-.063-.188h-.062v-.062h-.062v-.125h-.062v-.063h-.063c-.062-.094-.062-.094-.062-.187h-.062v-.063h-.062l-.063-.187h-.062v-.063h-.062v-.125h-.062v-.062h-.063c-.062-.094-.062-.094-.062-.188h-.062v-.062h-.062l-.063-.188h-.062v-.062h-.062v-.125h-.062v-.062h-.063c-.062-.094-.062-.094-.062-.188h-.062v-.062h-.062l-.063-.188h-.062v-.062h-.062v-.125h-.062v-.062h-.063c-.062-.094-.062-.094-.062-.188h-.062v-.062h-.062l-.063-.188h-.062v-.062h-.062v-.125h-.062v-.063h-.063c-.062-.094-.062-.094-.062-.187h-.062v-.063h-.062l-.063-.187h-.062v-.063h-.062v-.125h-.062v-.062h-.063c-.062-.094-.062-.094-.062-.188h-.062v-.062h-.062v-.125h-.063V8.12h-.062v-.062h-.062v-.125h-.062V7.87h-.063c-.062-.094-.062-.094-.062-.188h-.062v-.063h-.062v-.125h-.063v-.063h-.062c-.062-.094-.062-.094-.062-.188h-.062V7.18h-.063l-.062-.188h-.062v-.063h-.062v-.125h-.063v-.063h-.062v-.125h-.062v-.188h-.062c-.012-.396-.012-.396.062-.563h.062V5.74h.062v-.125h.063v-.063h.062v-.063h.062v-.063h.094v-.063h.094V5.3h.125v-.063h.188v-.063z"/>
    </symbol>
    <symbol id="icon-bike" viewBox="0 0 32 32">
      <path fill="#fff" d="M16.27 5.665h.197l.643.002h.447l.936.003 1.2.003.922.002.443.001.618.002h.185l.17.001.148.001c.135.008.254.034.384.071l.004.233.016.874.006.375c.032 1.978.201 3.827 1.536 5.394l.138.167c1.173 1.362 2.819 2.045 4.577 2.192l.222.016v.062l-.154.005c-.949.03-1.898.06-2.846.12l.052.14.23.629.081.221.077.212.071.195c.052.165.052.165.052.352l.118-.004c1.377-.04 2.601.191 3.676 1.118.837.795 1.509 1.795 1.592 2.982.034 1.488-.204 2.714-1.261 3.842-.799.832-1.918 1.412-3.082 1.452-1.298.024-2.527-.194-3.512-1.105a16.14 16.14 0 0 1-.344-.348l-.14-.134c-.801-.814-1.131-1.969-1.142-3.081.012-1.261.396-2.406 1.297-3.308.202-.193.405-.382.617-.563.106-.092.206-.19.305-.289l-.562-1.562c-.55.34-1.034.673-1.5 1.125l-.127.114c-.681.628-1.114 1.467-1.435 2.324l-.076.2c-.185.565-.237 1.142-.286 1.733-.061.654-.061.654-.326.941-.283.222-.532.214-.877.212l-.172.001h-.572l-.41.001-1.115.001-.93.001h-2.319c-.671-.001-1.342 0-2.014.002-.69.002-1.379.002-2.068.002l-1.161.001H7.707l-.401.001c-.182.001-.364 0-.547-.001l-.16.002c-.333-.004-.522-.063-.787-.283-.267-.344-.217-.712-.215-1.129l-.004-.221c0-.638.118-1.237.504-1.76l.11-.155c.624-.643 1.453-.991 2.246-1.38l.37-.183c.943-.467 1.89-.927 2.844-1.37 1.532-.711 2.912-1.569 4.296-2.535a49.601 49.601 0 0 1 1.184-.8l.495-.325.325-.214.181-.119c.278-.205.504-.383.584-.733.044-.328.041-.658.044-.988l.004-.246.008-.644c.002-.22.006-.439.009-.659l.016-1.289-.118.002c-.408.006-.815.009-1.223.012l-.456.005-.656.006-.205.004c-.384 0-.612-.019-.904-.278-.254-.326-.236-.666-.187-1.063.264-.558.648-.59 1.208-.585zm8.667 11.897c.035.295.094.561.191.842l.08.234.087.25.09.26.189.543.24.693.186.536.088.255c.23.729.23.729.724 1.288.29.086.604.103.883-.024.211-.144.327-.265.429-.501.09-.53-.105-1.012-.281-1.502l-.087-.25-.23-.654-.232-.663c-.327-.937-.327-.937-.671-1.869-.569 0-1.204.285-1.688.562z" style="fill:var(--color1, #fff)"/>
      <path fill="#fff" d="m6.555 9.59.646.083 1.369.175 1.594.203.636.082.389.049.178.024c.464.058.727.007 1.14-.222 1.271-.654 2.754-.756 4.125-.364.18.067.18.067.367.192.042.2.042.2.055.445l.019.243c-.037.241-.143.331-.336.474-.1.066-.2.132-.3.196-.143.091-.285.186-.426.28-.354.236-.71.469-1.066.702l-.548.359-.356.233c-.35.229-.35.229-.69.472-.679.503-1.448.841-2.207 1.205l-.434.21c-.325.158-.65.315-.976.47a6.878 6.878 0 0 0-.339.179 8.856 8.856 0 0 0-.298.169c-.452.141-.997-.097-1.434-.222l-.231-.065-.624-.177-.522-.149-1.231-.351-1.268-.361-1.091-.311-.651-.185c-.242-.068-.484-.138-.725-.207l-.217-.061c-.412-.12-.76-.222-1.031-.572a1.18 1.18 0 0 1-.099-.535l-.004-.189c.041-.252.113-.371.281-.565.18-.126.373-.22.57-.316l.183-.091.311-.155c.285-.141.567-.289.848-.438.231-.122.462-.242.694-.362l.345-.182c.164-.088.33-.173.496-.257l.146-.08c.812-.405 1.849-.141 2.712-.029zM5.813 17.062c-.156.158-.313.313-.476.465-.879.835-1.447 1.906-1.483 3.128-.002.13-.002.261-.002.391 0 .132-.003.265-.005.397-.007.832.205 1.51.778 2.129.825.788 1.84.816 2.926.842l.26.007.627.016c-.624.964-1.595 1.542-2.697 1.819a5.013 5.013 0 0 1-3.74-.694 6.187 6.187 0 0 1-.75-.688l-.14-.134c-.875-.888-1.153-2.139-1.144-3.345.037-1.241.528-2.274 1.409-3.147l.139-.146c1.004-.988 2.947-1.619 4.298-1.042zM24.438 6.188l.296.087.167.049c1.784.575 3.325 2.187 4.18 3.802.472.929.919 2.006.919 3.063-1.461.043-2.843-.048-3.969-1.09a16.14 16.14 0 0 1-.344-.348l-.14-.134c-.269-.273-.452-.571-.626-.909l-.06-.116a5.992 5.992 0 0 1-.174-.404l-.07-.171c-.263-.754-.208-1.533-.196-2.322l.003-.44.012-1.068z" style="fill:var(--color1, #fff)"/>
    </symbol>
    <symbol id="icon-biker" viewBox="0 0 32 32">
      <path fill="#fff" d="m6.313 6.438.115.074.357.227c.15.095.298.191.446.288 3.705 2.398 8.673 2.749 12.907 1.848 1.978-.449 3.874-1.189 5.487-2.436.536.537.613 1.889.688 2.625l.018.161c.098.959.098.959-.157 1.317a4.84 4.84 0 0 1-.549.522 6.553 6.553 0 0 0-.23.27c-.76.877-1.815 1.565-2.832 2.106l-.147.078c-.665.347-1.345.623-2.056.863l-.214.072c-.755.245-.755.245-1.145.236-.156-.143-.156-.143-.277-.344-.418-.635-.99-.958-1.727-1.123-1.046-.151-2.158-.084-3.074.462a2.42 2.42 0 0 0-.584.589l-.108.157-.097.152c-.134.106-.134.106-.361.101a7.728 7.728 0 0 1-.862-.222l-.165-.05c-2.245-.7-4.286-1.983-5.808-3.786l-.139-.138c-.159-.248-.146-.455-.139-.744l.003-.167c.029-1.019.189-2.217.65-3.137z" style="fill:var(--color1, #fff)"/>
      <path fill="#fff" d="m15.288-.013.152-.001c2.102-.014 2.102-.014 2.998.202l.156.037c2.557.619 4.696 2.085 6.156 4.276.044.082.087.165.125.25-2.017 1.959-5.309 2.75-8.04 2.763l-.187.001-.594.002h-.205c-.963-.001-1.902-.018-2.85-.203l-.179-.034c-1.914-.365-3.872-.965-5.387-2.24-.129-.111-.129-.111-.31-.227.624-1.737 2.651-3.122 4.233-3.878 1.225-.567 2.575-.939 3.93-.947zM16 14.969l.238-.003c.715.003.715.003 1.012.284.51.63.218 1.772.157 2.531l-.029.368-.061.766-.078.979-.06.757-.029.361-.04.504-.012.149c-.023.281-.055.558-.098.836h.141l3.399-.006 1.644-.003 1.433-.002.758-.002.715-.001.261-.001c.465-.002.886.017 1.336.14a2.018 2.018 0 0 1-.352.513c-1.482 1.657-1.828 3.673-1.855 5.828l-.004.235-.012.857L24.437 32h-7.5v-9.5h-1.875l-.044-.531-.062-.739-.016-.196a154.538 154.538 0 0 0-.236-2.57l-.106-1.044-.039-.384-.018-.172c-.119-1.191-.119-1.191.209-1.614.36-.342.777-.287 1.25-.281z" style="fill:var(--color1, #fff)"/>
      <path fill="#fff" d="M6.782 22.486h.276l.735.002.692.001 2.019.004 4.559.008v9.5h-7.5l-.03-2.509c.01-1.794.01-1.794-.322-3.546l-.049-.162a7.502 7.502 0 0 0-.662-1.471l-.103-.184c-.239-.4-.53-.746-.84-1.092-.244-.275-.244-.275-.244-.412.492-.135.962-.142 1.47-.139zM3.5 23.625c.785.26 1.325 1.194 1.682 1.905.438.9.542 1.774.529 2.759l-.001.324c-.001.28-.003.561-.006.841-.003.338-.004.676-.006 1.015-.002.511-.007 1.021-.012 1.532h-3.75c-.01-1.369-.01-1.369-.012-1.957-.002-.4-.003-.799-.007-1.199-.003-.323-.004-.645-.005-.968 0-.122-.001-.245-.003-.367-.01-.908.079-1.694.499-2.517l.063-.125c.231-.436.551-.776.902-1.117l.125-.125zM28.375 23.625c.662.256 1.072 1.044 1.346 1.651.231.578.361 1.114.355 1.736v.165l-.002.533-.001.372c0 .325-.002.649-.003.974l-.003 1.171c-.001.592-.004 1.183-.006 1.774h-3.75c-.01-1.177-.01-1.177-.012-1.684-.002-.344-.003-.688-.007-1.033-.003-.278-.004-.556-.005-.834l-.003-.316c-.011-.896.1-1.736.503-2.552l.064-.132c.321-.636.875-1.501 1.522-1.825zM6 13.25c.242.134.454.294.67.464.525.413 1.059.774 1.642 1.098l.124.07c1.35.762 2.813 1.244 4.314 1.617l.196 1.954.091.908.088.877.034.334.047.469.014.138c.029.296.036.586.032.883-2.027-.579-3.887-2.161-5.062-3.875l-.081-.116c-1.007-1.462-1.767-3.073-2.107-4.821zM25.938 13.25c.174.348-.191 1.063-.304 1.417-.473 1.393-1.192 2.66-2.071 3.833l-.133.18c-1.115 1.432-2.641 2.7-4.367 3.32h-.188c-.014-.599.03-1.193.075-1.789l.012-.156.063-.816.063-.843.05-.65.023-.311c.01-.144.022-.288.034-.433l.019-.249.037-.191c.224-.15.445-.196.703-.258 2.114-.539 4.05-1.476 5.734-2.867l.25-.188z" style="fill:var(--color1, #fff)"/>
    </symbol>
    <symbol id="icon-close" viewBox="0 0 32 32">
      <path fill="#fff" d="m8.533 25.333-1.867-1.867 7.467-7.467-7.467-7.467 1.867-1.867L16 14.132l7.467-7.467 1.867 1.867-7.467 7.467 7.467 7.467-1.867 1.867L16 17.866l-7.467 7.467z" style="fill:var(--color1, #fff)"/>
    </symbol>
    <symbol id="icon-email" viewBox="0 0 32 32">
      <path fill="#fff" d="M28 6H4a.997.997 0 0 0-1 1v17a2 2 0 0 0 2 2h22a2 2 0 0 0 2-2V7a.997.997 0 0 0-1-1zM16 16.644 6.571 8h18.857l-9.429 8.644zM12.339 16 5 22.726V9.274L12.339 16zm1.48 1.356 1.5 1.381a1.003 1.003 0 0 0 1.352 0l1.5-1.381L25.421 24H6.571l7.247-6.644zM19.661 16 27 9.272v13.455l-7.339-6.728z" style="fill:var(--color1, #fff)"/>
    </symbol>
    <symbol id="icon-energy" viewBox="0 0 32 32">
      <path fill="#fff" d="m9.734 10.491.128-.001.426-.001.305-.001 1.003-.003.346-.001 1.625-.003c.624-.001 1.248-.002 1.872-.005l1.449-.003.864-.002c.271-.002.543-.002.814-.001l.298-.001c.919-.008 1.619.185 2.308.812l.141.156.156.168c.495.609.669 1.359.614 2.133-.102.673-.411 1.248-.747 1.828l-.129.226-.236.412c-.251.445-.318.869-.183 1.377.111.243.267.42.45.613.778.842.843 1.821.841 2.908l.001.333.001.899.001.752v1.773c0 .609 0 1.219.002 1.828l.001 1.572.001.938v.881l.001.323c.001.147 0 .294-.001.441v.249c-.034.322-.131.524-.371.741-.273.189-.491.177-.814.177l-.17.001-.569.001-.406.001-1.107.002-.691.001-2.161.003c-.832.001-1.664.002-2.497.005-.643.002-1.285.003-1.928.003l-1.152.002c-.361.001-.723.002-1.084.001l-.398.001c-.181.001-.362.001-.543 0l-.159.002c-.333-.004-.519-.064-.784-.283-.247-.281-.258-.518-.259-.884l-.001-.139-.001-.462-.001-.331-.002-.9-.001-.563-.002-1.762-.003-2.031-.002-1.571c0-.313 0-.625-.002-.938l-.001-.884-.001-.323c-.007-1.211.258-2.135 1.075-3.044.266-.329.307-.642.3-1.057-.08-.481-.355-.885-.602-1.299-.559-.95-.957-1.784-.676-2.922.262-.832.681-1.377 1.426-1.828.42-.217.76-.32 1.234-.322zm2.593 6.412c-.207.288-.312.632-.431.963l-.081.221a69.33 69.33 0 0 0-.213.588l-.22.608-.305.845c-.131.364-.264.728-.399 1.091-.073.195-.144.391-.216.587l-.096.259c-.175.465-.299.819-.178 1.31a.535.535 0 0 0 .164.246l.088.103c.341.245.748.229 1.15.221l.157-.002.379-.006-.001.14c-.004.436-.007.872-.008 1.308l-.004.672-.004.649-.004.367v.227l-.001.199c.035.292.144.497.351.703.236.15.445.254.731.22.708-.206 1.17-1.108 1.592-1.668.14-.185.281-.368.423-.552l.151-.196.15-.194.313-.406.156-.203.078-.102c1.484-1.93 1.484-1.93 1.563-2.031l.155-.202c.135-.175.269-.35.405-.524l.084-.109.232-.299c.282-.377.474-.644.452-1.123-.094-.262-.215-.456-.438-.625a3.183 3.183 0 0 0-1.062-.133l-.147.002c-.118.001-.236.004-.353.006l.085-.192c.105-.237.209-.474.312-.712l.135-.307.194-.444.061-.136c.162-.377.277-.762.146-1.163-.169-.239-.347-.444-.64-.524a4.218 4.218 0 0 0-.562-.033l-.237-.002-.255-.001h-.131a156.41 156.41 0 0 0-.685-.002c-.235 0-.469-.002-.704-.004l-.545-.002-.259-.002c-.825-.016-.825-.016-1.526.362zM12.969-.009l.222-.001h.245l.257-.001.699-.001.438-.001 1.371-.002 1.579-.003 1.222-.002c.243 0 .486 0 .729-.002l.687-.001.369-.002c1.212.006 2.173.461 3.047 1.287.823.846 1.186 1.924 1.182 3.092-.021 1.136-.49 2.167-1.28 2.976-.783.746-1.733 1.179-2.817 1.178l-.158.001-.523.001-.375.001-1.231.003-.424.001-1.991.003c-.766.001-1.533.002-2.299.005-.592.002-1.185.003-1.777.003l-1.061.002c-.333.001-.665.002-.998.001l-.366.001h-.5l-.146.002c-.324-.004-.506-.08-.756-.283-.322-.366-.264-.776-.266-1.238l-.004-.223c-.003-.68-.003-.68.207-.976.306-.276.493-.322.894-.322l.144-.001.481-.001.344-.001.936-.002.584-.001 1.827-.003c.704-.001 1.407-.002 2.111-.005a442.82 442.82 0 0 1 1.63-.003l.974-.002c.306-.001.611-.002.917-.001l.336-.001h.459l.134-.002c.366.005.58.144.842.388.115.224.121.458.137.707.722-.208 1.293-.462 1.688-1.125.327-.637.425-1.244.219-1.945-.243-.65-.662-1.069-1.281-1.367-.545-.229-1.149-.2-1.73-.207l-.246-.004-.642-.01-.657-.01-1.286-.019v1.75h-5.062l-.012-1.445-.005-.454-.001-.359-.003-.186c0-.337.016-.578.209-.868.271-.245.421-.32.782-.321z" style="fill:var(--color1, #fff)"/>
      <path fill="#fff" d="M13.625 18.438h2c-.116.347-.225.664-.372.994l-.102.235-.158.36c-.292.651-.292.651-.243 1.348a.904.904 0 0 0 .512.457c.287.052.573.083.863.106-.112.259-.283.472-.453.695l-.099.131c-.295.39-.595.776-.897 1.161-.164.21-.324.42-.475.64l-.138.186h-.125l-.003-.172a66.52 66.52 0 0 0-.014-.635 26.157 26.157 0 0 0-.014-.67l-.005-.24c-.041-.331-.128-.52-.381-.739-.249-.127-.457-.161-.732-.185l-.139-.015c-.112-.012-.225-.022-.337-.032.425-1.214.856-2.423 1.312-3.625z" style="fill:var(--color1, #fff)"/>
    </symbol>
    <symbol id="icon-fuel" viewBox="0 0 32 32">
      <path fill="#fff" d="m13.031-.026.426-.002c.384-.001.768-.002 1.152-.001l.964-.001 2.406-.001 2.083-.003 2.145-.003c.401 0 .801 0 1.202-.002h1.131l.413-.001c1.382-.008 2.487.268 3.519 1.253.921.967 1.184 2.146 1.179 3.443l.001.306v.835l.001.903.001 1.767v2.06a2535 2535 0 0 1 0 3.9c-.001 1.188 0 2.376.002 3.564.002 1.221.002 2.443.002 3.664l.001 2.055a510.417 510.417 0 0 1 0 2.642c.001.273.001.545-.001.818l.001.294c.008 1.253-.314 2.408-1.189 3.339a4.368 4.368 0 0 1-1.781 1.072l-.208.064c-.369.091-.74.078-1.117.077l-.251.001-.686.001-.741.001-1.452.001-1.18.001-3.35.002h-.365c-.976 0-1.951.001-2.927.003l-3.008.003c-.563 0-1.125 0-1.688.002l-1.437.001-.732.001h-.672l-.355.002c-1.129-.009-2.111-.438-2.909-1.227-.843-.894-1.201-1.905-1.195-3.123l-.001-.239a70.417 70.417 0 0 1 0-.65l-.001-.704-.001-1.377V20.07c.001-.926 0-1.851-.002-2.776-.002-.952-.002-1.904-.002-2.856l-.001-1.601a309.629 309.629 0 0 1 0-2.058c-.001-.252 0-.503.001-.755l-.002-.218c.017-1.875 1.293-3.02 2.526-4.252l.367-.367.866-.867.887-.889.768-.769.456-.457C9.765.71 10.892-.026 13.033-.023zm-.781 4.088-.092.089c-.272.264-.541.53-.809.797l-.129.129-.676.673-.696.691-.538.535-.257.255-.358.357-.106.104c-.396.402-.596.843-.607 1.409.006.597.182.978.587 1.412.525.49 1.106.569 1.803.566l.182.001h.599l.431.001a455.521 455.521 0 0 0 2.146.002h2.436c.704 0 1.408 0 2.113.002.724.001 1.448.002 2.173.001l1.218.001h1.146l.42.001c.191.001.383 0 .574-.001l.166.001c.676-.006 1.282-.214 1.762-.701.483-.589.48-1.277.478-2.005l.001-.287v-.598c-.001-.254.001-.507.002-.761l.001-.591.001-.28c.005-.686-.062-1.332-.498-1.891-.379-.383-.836-.61-1.378-.615l-.13.001-.141-.001-.464-.001-.334-.001-.905-.001-.566-.001-1.975-.002-1.839-.003c-.527-.002-1.054-.002-1.581-.002-.314 0-.629 0-.943-.002h-.888l-.325-.001c-.854-.006-1.382.113-2.005.719zm-1.859 12.676a7.814 7.814 0 0 0-1.874 5.688c.183 1.734.902 3.254 2.108 4.511l.146.158c1.284 1.348 3.161 2.095 5.006 2.163 2.168.036 4.091-.791 5.642-2.273 1.52-1.576 2.121-3.553 2.099-5.709a6.082 6.082 0 0 0-.267-1.651l-.04-.13a7.668 7.668 0 0 0-3.633-4.384c-3.126-1.604-6.785-.918-9.187 1.628z" style="fill:var(--color1, #fff)"/>
      <path fill="#fff" d="M19.668 17.332c1.059.902 1.887 2.193 2.02 3.606.108 1.728-.198 3.149-1.312 4.5l-.148.199c-.836.896-2.008 1.554-3.227 1.738l-.128.021a5.902 5.902 0 0 1-4.299-1.087c-1.242-.975-2.04-2.343-2.245-3.914a8.143 8.143 0 0 1-.016-.27l-.008-.17c-.034-1.53.478-2.951 1.508-4.08l.128-.145c2.014-2.165 5.48-2.173 7.728-.398zm-5.242 2.445c-.685.986-1.249 1.925-1.113 3.16.152.71.597 1.333 1.188 1.75.665.399 1.336.547 2.109.406.749-.205 1.398-.648 1.809-1.313.342-.646.461-1.336.28-2.053-.334-.93-.906-1.709-1.51-2.478a10.149 10.149 0 0 1-.083-.108c-.374-.524-.374-.524-.934-.792l-.139.002-.139-.002c-.646.113-1.113.927-1.467 1.427zM18.683 4.917a46.58 46.58 0 0 0 1.868.081c1.276.039 2.55.104 3.824.189l.003 1.561.001.725a162.868 162.868 0 0 1 .002.966v.588c-.007.159-.007.159-.07.222-.186.006-.371.008-.558.008h-.18l-.601-.001h-.429l-1.168-.001h-1.219l-2.047-.001L16 9.253h-.783L9.808 9.25c.133-1.186 2.045-2.742 2.91-3.463 1.661-1.314 3.97-1.01 5.96-.87zM6.5.687c.137.097.253.197.375.313-.027.277-.217.432-.404.618l-.108.109-.355.356-.246.247-.517.517-.661.665-.508.51-.244.246a36.67 36.67 0 0 1-.342.341l-.101.104c-.095.093-.095.093-.264.223-.142-.004-.142-.004-.25-.063-.377-.429-.533-.88-.519-1.446.059-.561.338-.932.726-1.323a93.584 93.584 0 0 1 .699-.72l.151-.156C4.667.486 5.522.151 6.5.685z" style="fill:var(--color1, #fff)"/>
      <path fill="#fff" d="M15.938 20.75c.215.088.304.179.423.377l.091.15.092.157.094.156c.219.365.359.659.3 1.098-.15.3-.324.477-.625.625-.291.052-.541.031-.805-.105-.252-.187-.34-.334-.441-.625-.013-.664.518-1.302.871-1.832z" style="fill:var(--color1, #fff)"/>
    </symbol>
    <symbol id="icon-mask" viewBox="0 0 32 32">
      <path fill="#fff" d="M22.309 7.2H8.775a8.76 8.76 0 0 0-6.349 2.726 8.814 8.814 0 0 0-2.415 6.489c.206 4.484 3.871 8.163 8.342 8.375 1.932.09 3.9-.721 6.018-2.481a1.93 1.93 0 0 1 2.466 0c1.288 1.072 3.272 2.491 5.588 2.491a8.746 8.746 0 0 0 6.246-2.619 8.8 8.8 0 0 0 2.528-6.297c-.062-4.789-4.051-8.684-8.89-8.684zm4.973 13.608a6.758 6.758 0 0 1-4.858 2.036c-1.692 0-3.291-1.162-4.345-2.037a3.88 3.88 0 0 0-4.954 0c-1.728 1.426-3.261 2.097-4.682 2.03-1.692-.092-3.29-.808-4.487-2.01s-1.909-2.805-1.999-4.502a6.86 6.86 0 0 1 1.878-5.049 6.817 6.817 0 0 1 4.94-2.12h13.534c3.778 0 6.892 3.03 6.941 6.753a6.822 6.822 0 0 1-1.967 4.9zm-4.858-8.719a.978.978 0 0 1-.975.977h-11.7c-.259 0-.507-.103-.689-.286s-.286-.432-.286-.691a.978.978 0 0 1 .975-.977h11.7c.259 0 .507.103.689.286s.286.432.286.691z" style="fill:var(--color1, #fff)"/>
    </symbol>
    <symbol id="icon-menu" viewBox="0 0 32 32">
      <path fill="#fff" d="M4 24v-2.667h24V24H4zm0-6.667v-2.667h24v2.667H4zm0-6.666V8h24v2.667H4z" style="fill:var(--color1, #fff)"/>
    </symbol>
    <symbol id="icon-playstore" viewBox="0 0 32 32">
      <path fill="#ea4335" d="M15.065 15.282 2.003 29.341l.002.009C2.406 30.877 3.78 32 5.412 32c.653 0 1.265-.179 1.79-.493l.042-.025 14.703-8.603-6.881-7.597z" style="fill:var(--color2, #ea4335)"/>
      <path fill="#fbbc04" d="m28.28 12.888-.012-.009-6.348-3.731-7.151 6.454 7.177 7.276 6.313-3.694a3.589 3.589 0 0 0 1.859-3.154 3.58 3.58 0 0 0-1.838-3.141z" style="fill:var(--color3, #fbbc04)"/>
      <path fill="#4285f4" d="M2.003 2.658a3.54 3.54 0 0 0-.12.921v24.843c0 .319.042.627.121.919l13.51-13.699L2.003 2.658z" style="fill:var(--color4, #4285f4)"/>
      <path fill="#34a853" d="m15.162 16 6.76-6.854L7.236.512A3.492 3.492 0 0 0 5.413.001c-1.632 0-3.008 1.126-3.409 2.654l-.001.004 13.159 13.342z" style="fill:var(--color5, #34a853)"/>
    </symbol>
    <symbol id="icon-road" viewBox="0 0 32 32">
      <path fill="#fff" d="m22.56 2.122.162.081.169.09.18.093a19.798 19.798 0 0 1 3.867 2.676l.173.15c.324.285.613.581.889.913.047.052.093.105.142.158 1.23 1.406 1.948 3.119 1.869 5.003-.113 1.558-.822 2.711-1.698 3.963l-.231.334a58.835 58.835 0 0 1-1.996 2.743l-.288.373a67.886 67.886 0 0 1-2.15 2.637l-.268.317c-.37.437-.75.863-1.141 1.281-.161.173-.32.349-.477.526-.19.212-.386.416-.59.615-.1.102-.191.207-.283.316-.338.388-.706.747-1.07 1.11l-.379.38c-.714.715-.714.715-1.095 1.038a5.1 5.1 0 0 0-.344.33c-.197.2-.401.386-.613.568-.159.139-.314.281-.469.424-.283.259-.576.503-.874.743-.17.141-.334.287-.497.436-.656.591-.656.591-.98.629-.292-.021-.436-.187-.625-.396a44.265 44.265 0 0 1-.549-.668 12.21 12.21 0 0 0-.424-.487 15.115 15.115 0 0 1-.559-.652 14.027 14.027 0 0 0-.598-.691 17.226 17.226 0 0 1-.735-.862 15.43 15.43 0 0 0-.574-.651 9.72 9.72 0 0 1-.378-.456c.084-.2.15-.286.344-.38l.138-.069.151-.074c.745-.378 1.462-.8 2.18-1.227l.197-.117a75.816 75.816 0 0 0 5.636-3.684c.075-.054.15-.106.226-.159.223-.144.223-.144.378-.353.023-.258.023-.258-.07-.492-.181-.108-.282-.097-.492-.07-.2.104-.38.235-.562.367l-.144.102c-.228.161-.455.325-.681.489-.536.387-1.082.756-1.636 1.117l-.131.086a83.52 83.52 0 0 1-4.736 2.871l-.189.107c-.426.238-.857.46-1.295.675a20.608 20.608 0 0 1-.906-1.031 13.878 13.878 0 0 0-.594-.688 17.39 17.39 0 0 1-.737-.864 12.758 12.758 0 0 0-.42-.48 15.115 15.115 0 0 1-.559-.652 14.027 14.027 0 0 0-.598-.691 17.39 17.39 0 0 1-.737-.864 12.758 12.758 0 0 0-.42-.48 15.115 15.115 0 0 1-.559-.652 14.027 14.027 0 0 0-.598-.691 17.478 17.478 0 0 1-.743-.866 13.623 13.623 0 0 0-.265-.32c-.293-.352-.293-.352-.348-.611.056-.222.13-.322.293-.484a2.9 2.9 0 0 1 .483-.108l.142-.023c.15-.024.299-.046.449-.068l.445-.07.286-.044c.24-.037.477-.079.714-.135.195-.043.347-.056.544-.052 1.168 2.105 1.168 2.105 1.634 3.208l.05.119c.081.192.16.384.239.577.358.864.859 1.479 1.735 1.852.621.228 1.426.205 2.03-.068 1.108-.553 1.44-1.517 1.898-2.599a26.509 26.509 0 0 1 2.313-4.327c.347-.527.713-1.097.914-1.698.149-.059.149-.059.347-.112.459-.132.897-.3 1.34-.48.129-.053.259-.104.388-.156.864-.348 1.78-.727 2.194-1.616.084-.39.029-.707-.16-1.059-1.03-1.577-3.005-2.489-4.641-3.276-.182-.096-.277-.151-.406-.302-.065-.215-.079-.331 0-.543.273-.315.759-.397 1.148-.508l.173-.05.563-.161.393-.113.824-.235 1.053-.302.812-.232.388-.111.544-.155.16-.047c.44-.122.892-.198 1.314.017zm-2.935 1.566c-.104.176-.104.176-.125.375.136.322.382.468.664.652l.136.091.267.177c.102.068.201.139.3.211l.144.104.12.089c.164.072.262.041.431-.011.156-.094.156-.094.25-.25-.008-.252-.022-.392-.19-.583a74.978 74.978 0 0 1-.169-.127l-.187-.142-.204-.147-.107-.079c-.63-.533-.63-.533-1.331-.359zm2.687 2.25c-.067.118-.067.118-.062.25.133.262.309.445.52.648.2.194.391.389.562.609.153.19.153.19.359.254.244-.016.332-.084.496-.262.073-.15.073-.15.062-.313-.151-.309-.388-.542-.621-.789l-.118-.126c-.324-.37-.324-.37-.761-.549-.231.034-.299.092-.438.277zM24.438 8.5c-.078.214-.064.247.03.474l.134.264c.215.434.379.862.517 1.326.066.177.108.261.257.374.148.063.148.063.312.062.232-.109.232-.109.375-.312.032-.381-.061-.67-.195-1.02l-.06-.159c-.174-.45-.367-.94-.745-1.259-.306-.046-.44.003-.625.25zm.559 3.82c-.131.194-.213.38-.298.598a4.116 4.116 0 0 1-.789 1.25c-.14.206-.137.339-.098.582.149.166.251.236.469.285.226-.051.328-.174.469-.348l.115-.143c.396-.517.975-1.319.935-1.994-.063-.225-.063-.225-.238-.363-.318-.048-.318-.048-.565.132zm-2.604 3.34-.132.104-.137.111-.135.108c-.137.11-.273.222-.408.333l-.139.113c-.365.297-.365.297-.693.633 0 .222.021.367.133.559.191.108.339.088.555.066a2.74 2.74 0 0 0 .391-.309l.212-.189.106-.096c.156-.14.319-.27.483-.402.39-.282.39-.282.594-.688-.047-.256-.144-.347-.348-.504-.263 0-.291.008-.482.16z" style="fill:var(--color1, #fff)"/>
      <path fill="#fff" d="M13.375 4.563c.262.217.508.449.75.688l.125.122c.982 1.041 1.453 2.53 1.438 3.94-.052 1.42-.578 2.528-1.348 3.694-.569.87-1.07 1.789-1.52 2.726-.081.169-.164.337-.246.506a31.14 31.14 0 0 0-.946 2.092c-.226.552-.516.862-1.064 1.108-.443.177-.905.158-1.355.006-.666-.3-.952-.816-1.219-1.471l-.179-.419-.092-.216c-.753-1.735-1.694-3.364-2.677-4.977-.829-1.366-1.148-2.922-.792-4.49.39-1.554 1.297-2.759 2.638-3.632 1.997-1.183 4.623-1.088 6.488.324zm-5.937 2.3c-.645.671-.927 1.601-.938 2.513.054.794.349 1.471.875 2.062l.104.128c.518.588 1.364.956 2.139 1.016 1.015.003 1.934-.255 2.69-.96.662-.713.99-1.65.959-2.619-.087-.934-.443-1.742-1.143-2.377-1.49-1.135-3.302-1.013-4.687.238z" style="fill:var(--color1, #fff)"/>
      <path fill="#fff" d="M11.559 7.359c.504.486.757 1.128.777 1.824-.021.678-.222 1.334-.716 1.819-.663.543-1.338.686-2.183.623-.68-.141-1.232-.486-1.625-1.063a2.981 2.981 0 0 1-.265-2.084c.22-.626.595-1.145 1.183-1.466.948-.435 2.021-.323 2.828.348z" style="fill:var(--color1, #fff)"/>
    </symbol>
    <symbol id="icon-speed" viewBox="0 0 32 32">
      <path fill="#fff" d="m24.75 8.062.191.152c.803.654 1.562 1.394 2.184 2.223l.075.099a14.325 14.325 0 0 1 2.726 10.514c-.265 1.804-.739 4.032-2.28 5.184-.836.55-1.665.723-2.647.719l-.243.001a73.04 73.04 0 0 1-.662 0l-.716.001-1.401.001h-4.726c-.942 0-1.884 0-2.826.002l-2.905.002-1.63.001H7.796c-.256.001-.512 0-.768-.001l-.223.001c-1.128-.007-2.097-.381-2.928-1.15l-.118-.108c-1.204-1.231-1.632-3.613-1.757-5.267l-.013-.167c-.259-3.717.828-7.447 3.271-10.293.7-.8 1.444-1.539 2.305-2.164l.198-.145c1.819-1.295 3.85-2.11 6.052-2.48l.14-.025c3.768-.636 7.842.529 10.798 2.9zM13.813 9.437l-.146.037c-1.5.384-2.877 1.063-4.041 2.088l-.166.145c-.155.137-.308.277-.459.418l-.114.104c-1.723 1.634-2.698 4.166-2.773 6.508a11.18 11.18 0 0 0 .345 3.009l.033.135c.094.333.254.572.51.806a.9.9 0 0 0 .701.089c.295-.13.476-.29.612-.589.084-.422-.066-.809-.186-1.21-.554-1.968-.124-4.21.852-5.977 1.162-1.887 2.922-3.262 5.094-3.783a9.235 9.235 0 0 1 1.552-.218l.153-.008a8.144 8.144 0 0 1 3.176.549c.295.106.498.112.796.021.203-.113.339-.256.465-.453a1.34 1.34 0 0 0-.113-.906c-.423-.363-.971-.498-1.496-.652l-.159-.047c-.803-.226-1.602-.277-2.431-.273h-.142c-.702.003-1.379.03-2.062.207zm7.766 2.845-.142.144-.304.31-.482.49c-.457.463-.914.927-1.369 1.393-.279.285-.558.569-.839.852l-.319.326a63.67 63.67 0 0 1-.446.453l-.132.138a1.94 1.94 0 0 1-.36.299c-.24-.002-.24-.002-.438-.062l-.155-.036-.142-.035a2.56 2.56 0 0 0-1.856.352c-.596.435-1.043 1.043-1.16 1.781-.054.788.085 1.424.562 2.063a2.82 2.82 0 0 0 1.875.937c.751.009 1.432-.277 1.982-.787.5-.542.723-1.214.725-1.941-.009-.21-.009-.21-.1-.386a1.076 1.076 0 0 1-.107-.636c.255-.45.686-.798 1.057-1.151l.332-.327c.291-.286.585-.57.879-.853.358-.344.712-.692 1.067-1.04.276-.27.552-.54.83-.808l.154-.149.286-.275.127-.123.111-.106c.199-.226.246-.426.238-.729-.041-.261-.202-.431-.379-.615-.648-.342-1.061.068-1.499.521z" style="fill:var(--color1, #fff)"/>
    </symbol>
    <symbol id="icon-wheel" viewBox="0 0 32 32">
      <path fill="#fff" d="M15.062 0v1.875h1.875V0c.845 0 .845 0 1.135.044l.196.029.201.032.213.034c.852.14 1.684.351 2.506.611a2.74 2.74 0 0 1-.192.712l-.076.184-.08.189-.08.194-.197.47c.17.113.319.184.507.26l.186.076.194.078.196.08.48.194c.23-.484.438-.963.614-1.47l.073-.155c.188-.063.188-.063.3-.024l.126.066.143.074.154.083.16.085c1.08.589 2.09 1.318 2.993 2.153-.265.317-.542.613-.836.902l-.121.12-.293.29a11.841 11.841 0 0 0 .917.982l.27.267c.317-.265.613-.542.902-.836l.12-.121.29-.293c1.025.833 2.081 2.368 2.5 3.625a15.43 15.43 0 0 1-1.125.516l-.165.069-.398.166.044.11.581 1.453c.432-.133.844-.301 1.259-.479.346-.146.346-.146.553-.146.458 1.455.812 2.907.812 4.438h-1.875v1.875h1.875c0 .845 0 .845-.044 1.135l-.029.196-.032.201-.034.213c-.14.852-.35 1.684-.611 2.506a2.74 2.74 0 0 1-.712-.192l-.184-.076-.189-.08-.194-.08a66.143 66.143 0 0 1-.47-.197c-.113.17-.184.319-.26.507l-.076.186-.078.194-.08.196-.194.48c.484.23.963.438 1.47.614l.155.073c.062.188.062.188.024.3l-.066.126a9.401 9.401 0 0 0-.074.143l-.083.154-.085.16A15.008 15.008 0 0 1 28 26.689a12.517 12.517 0 0 1-.902-.836l-.12-.121-.29-.293a11.841 11.841 0 0 0-.982.917l-.267.27c.265.317.542.613.836.902l.121.12.293.29c-.833 1.025-2.368 2.081-3.625 2.5a15.43 15.43 0 0 1-.516-1.125l-.069-.165-.166-.398-.11.044-1.453.581c.133.432.301.844.479 1.259.146.346.146.346.146.553-1.455.458-2.907.812-4.438.812v-1.875h-1.875v1.875c-.845 0-.845 0-1.135-.044l-.196-.029-.201-.032-.213-.034c-.852-.14-1.684-.35-2.506-.611a2.74 2.74 0 0 1 .192-.712l.076-.184.08-.189.08-.194.197-.47a2.638 2.638 0 0 0-.507-.26l-.186-.076a19.533 19.533 0 0 0-.194-.078l-.196-.08-.48-.194c-.23.484-.438.963-.614 1.47l-.073.155c-.188.062-.188.062-.3.024l-.126-.066a9.401 9.401 0 0 0-.143-.074l-.154-.083-.16-.085A15.008 15.008 0 0 1 5.31 28c.265-.317.542-.613.836-.902l.121-.12.293-.29a11.841 11.841 0 0 0-.917-.982l-.271-.267c-.317.265-.613.542-.902.836l-.12.121-.29.293c-1.025-.833-2.081-2.368-2.5-3.625a31.382 31.382 0 0 1 1.688-.75l-.044-.11-.581-1.453c-.432.133-.844.301-1.259.479-.346.146-.346.146-.553.146-.458-1.455-.813-2.907-.813-4.438h1.875v-1.875H-.002c0-.845 0-.845.044-1.135l.029-.196.032-.201.034-.213c.14-.852.351-1.684.611-2.506.255.036.475.092.712.192l.184.076.189.08.194.08.47.197c.113-.17.184-.319.26-.507l.076-.186.078-.194.08-.196.194-.48c-.484-.23-.963-.438-1.47-.614l-.155-.073c-.063-.188-.063-.188-.024-.3l.066-.126.074-.143.083-.154.085-.16a15.008 15.008 0 0 1 2.153-2.993 12.517 12.517 0 0 1 1.022.957l.29.293c.306-.254.592-.522.871-.805l.111-.112.267-.271a12.517 12.517 0 0 0-.836-.902l-.121-.12-.293-.29c.833-1.025 2.368-2.081 3.625-2.5.189.369.357.742.516 1.125l.069.165.166.398.11-.044 1.453-.581a12.583 12.583 0 0 0-.479-1.259c-.146-.346-.146-.346-.146-.553 1.455-.458 2.907-.813 4.438-.813zm-6.18 9.249a96.213 96.213 0 0 1-.437.515 9.875 9.875 0 0 0-2.232 7.034c.26 2.526 1.429 5.009 3.412 6.639l.135.116c2.002 1.674 4.626 2.44 7.214 2.212a9.868 9.868 0 0 0 6.565-3.512c1.64-2.021 2.501-4.598 2.232-7.21-.309-2.472-1.446-4.879-3.396-6.481a96.213 96.213 0 0 1-.139-.118c-3.915-3.244-9.847-2.883-13.354.805z" style="fill:var(--color1, #fff)"/>
      <path fill="#fff" d="m14.625 19.125.201.041.268.053.132.027c.557.108 1.019.051 1.57-.086a.946.946 0 0 1 .517.028c.102.097.102.097.191.224l.103.143.108.156.234.327.12.17c.183.257.372.511.56.764l.324.44.226.307.341.464.106.142.097.133.085.116c.072.12.103.226.13.363-.631.334-1.246.621-1.938.812l-.211.061c-1.988.47-4.106.075-5.852-.936.174-.32.368-.606.59-.895.274-.361.544-.725.809-1.094.425-.591.856-1.177 1.289-1.762zM23.812 14.25c.117.574.15 1.134.148 1.719v.133c-.008 2.262-.92 4.087-2.461 5.711-.506-.488-.905-1.074-1.31-1.646-.23-.324-.465-.644-.702-.963a39.286 39.286 0 0 1-.863-1.203l.091-.192.12-.253.06-.126c.202-.43.313-.824.362-1.296l.016-.148.038-.359c.426-.199.873-.329 1.321-.466l.257-.079.537-.164.688-.211.53-.163.254-.078.354-.108.203-.062c.167-.044.167-.044.354-.044zM8.25 14.125c.467.037.892.172 1.337.313l.241.075.501.157.643.201.615.192.234.073.215.068.19.06c.149.05.149.05.274.112l-.009.156c-.027.861.122 1.594.622 2.309.075.159.075.159.047.306a5.821 5.821 0 0 1-.465.65c-.281.361-.554.726-.816 1.102-.28.4-.563.797-.852 1.191l-.113.156-.106.145-.094.128c-.09.106-.09.106-.277.231-1.326-1.239-2.309-3.142-2.384-4.971l-.003-.625-.002-.398c-.005-1.217-.005-1.217.202-1.631zM16.812 8.062c1.878.25 3.337.929 4.75 2.188l.126.113c.644.609 1.087 1.362 1.499 2.137-.202.135-.372.189-.605.26l-.128.039-.417.126-.289.088-.761.23-.777.235-1.524.46-.149-.149c-.523-.523-1.066-.833-1.726-1.163V8.064zM15 8.125v4.5l-1 .5c-.25.18-.472.347-.688.563-.424-.021-.828-.172-1.23-.297l-.23-.07-.604-.185-.85-.26-.451-.138a44.836 44.836 0 0 0-1.009-.3c.035-.282.152-.486.305-.719l.075-.115c.278-.417.598-.794.933-1.166l.112-.126c1.12-1.186 3.001-2.187 4.638-2.187zM16.826 14.592c.365.296.578.635.675 1.095.035.513-.057.927-.387 1.332-.348.365-.709.514-1.21.545-.537-.007-.947-.242-1.329-.607-.284-.43-.366-.848-.297-1.357.107-.493.367-.82.785-1.1.583-.287 1.217-.273 1.763.092z" style="fill:var(--color1, #fff)"/>
    </symbol>
  </defs>
</svg>
